<svg xmlns="http://www.w3.org/2000/svg" xmlns:xlink="http://www.w3.org/1999/xlink" viewBox="2785 1644 639 465">
  <defs>
    <style>
      .cls-1, .cls-2, .cls-7 {
        fill: #fff;
      }

      .cls-1 {
        stroke: #e6e6e6;
        opacity: 0.75;
      }

      .cls-2 {
        stroke: #ccc;
      }

      .cls-3 {
        fill: #95989a;
        font-size: 12px;
        font-family: Nunito-Bold, Nunito;
        font-weight: 700;
      }

      .cls-4 {
        fill: #6b727b;
        font-size: 20px;
        font-family: Nunito-SemiBold, Nunito;
        font-weight: 600;
      }

      .cls-5 {
        fill: #00e5a7;
      }

      .cls-6 {
        fill: #07aa7e;
      }

      .cls-8 {
        stroke: none;
      }

      .cls-9 {
        fill: none;
      }

      .cls-10 {
        filter: url(#Rectangle_18);
      }
    </style>
    <filter id="Rectangle_18" x="2785" y="1644" width="639" height="465" filterUnits="userSpaceOnUse">
      <feOffset dy="3" input="SourceAlpha"/>
      <feGaussianBlur stdDeviation="38" result="blur"/>
      <feFlood flood-opacity="0.161"/>
      <feComposite operator="in" in2="blur"/>
      <feComposite in="SourceGraphic"/>
    </filter>
  </defs>
  <g id="Group_11" data-name="Group 11" transform="translate(2166 -243)">
    <g class="cls-10" transform="matrix(1, 0, 0, 1, -2166, 243)">
      <g id="Rectangle_18-2" data-name="Rectangle 18" class="cls-1" transform="translate(2899 1755)">
        <rect class="cls-8" width="411" height="237" rx="4"/>
        <rect class="cls-9" x="0.5" y="0.5" width="410" height="236" rx="3.5"/>
      </g>
    </g>
    <g id="Rectangle_21" data-name="Rectangle 21" class="cls-2" transform="translate(760 2084)">
      <rect class="cls-8" width="83" height="31" rx="4"/>
      <rect class="cls-9" x="0.5" y="0.5" width="82" height="30" rx="3.5"/>
    </g>
    <g id="Rectangle_22" data-name="Rectangle 22" class="cls-2" transform="translate(848 2084)">
      <rect class="cls-8" width="270" height="31" rx="4"/>
      <rect class="cls-9" x="0.5" y="0.5" width="269" height="30" rx="3.5"/>
    </g>
    <text id="_1091-1_02" data-name="1091-1/02" class="cls-3" transform="translate(774 2104)"><tspan x="0" y="0">1091-1/02</tspan></text>
    <text id="Fabricação_de_produtos_de_panificação." data-name="Fabricação de produtos de panificação." class="cls-3" transform="translate(876 2104)"><tspan x="0" y="0">Fabricação de produtos de panificação.</tspan></text>
    <text id="Digite_o_CNAE" data-name="Digite o CNAE" class="cls-4" transform="translate(760 2051)"><tspan x="0" y="0">Digite o CNAE</tspan></text>
    <path id="Union_1" data-name="Union 1" class="cls-5" d="M0,65.863V8.643H104.526l-.748-.748L111.673,0l8.644,8.643H499.635v57.22Z" transform="translate(689.183 2131.472)"/>
    <ellipse id="Ellipse_1" data-name="Ellipse 1" class="cls-6" cx="13.966" cy="13.966" rx="13.966" ry="13.966" transform="translate(719.886 2155.467)"/>
    <path id="checked_1_" data-name="checked (1)" class="cls-7" d="M.182,9.658a.585.585,0,0,1,0-.847l.847-.847a.585.585,0,0,1,.847,0l.061.061,3.329,3.571a.293.293,0,0,0,.424,0L13.8,3.182h.061a.585.585,0,0,1,.847,0l.847.847a.585.585,0,0,1,0,.847h0L5.871,14.923a.585.585,0,0,1-.847,0L.3,9.839.182,9.658Z" transform="translate(725.872 2160.447)"/>
    <rect id="Rectangle_25" data-name="Rectangle 25" class="cls-6" width="404.732" height="5.583" transform="translate(763.151 2168.027)"/>
  </g>
</svg>
