<svg xmlns="http://www.w3.org/2000/svg" viewBox="3814 4167 28.143 23.013">
  <defs>
    <style>
      .cls-1 {
        fill: #fff;
      }
    </style>
  </defs>
  <g id="twitter-social-outlined-logo" transform="translate(3084.001 3760.946)">
    <g id="twitter">
      <g id="Group_30" data-name="Group 30">
        <path id="Path_33" data-name="Path 33" class="cls-1" d="M27.865,58.47a.637.637,0,0,0-.742.015,2.347,2.347,0,0,1-.639.3,3.009,3.009,0,0,0,.865-1.968.638.638,0,0,0-1.007-.472A5.6,5.6,0,0,1,23.293,57.4a6.048,6.048,0,0,0-10.116,5.153C7.614,62.412,3.1,57.168,3.056,57.115a.637.637,0,0,0-1.037.091,5.951,5.951,0,0,0,.133,6.318.638.638,0,0,0-.94.551A5.778,5.778,0,0,0,3.5,69.03a.638.638,0,0,0-.367.779,5.7,5.7,0,0,0,4.07,3.981,8.552,8.552,0,0,1-4.891,1.34,10.075,10.075,0,0,1-1.567-.111.638.638,0,0,0-.494,1.138A14.768,14.768,0,0,0,9.095,78.8a17.251,17.251,0,0,0,3.324-.3c12.477-2.913,12.951-14.1,12.931-16.139,2.339-2.149,2.711-2.987,2.77-3.2A.637.637,0,0,0,27.865,58.47Zm-3.589,3.148a.638.638,0,0,0-.208.517c.008.121.69,12.177-11.928,15.124a16.379,16.379,0,0,1-3.046.265,14.963,14.963,0,0,1-5.939-1.144A8.582,8.582,0,0,0,9.107,73.8a.639.639,0,0,0-.477-1.066,4.614,4.614,0,0,1-3.885-2.364,3.451,3.451,0,0,0,1.5-.246.638.638,0,0,0-.132-1.2,4.716,4.716,0,0,1-3.547-3.736A3.135,3.135,0,0,0,4.1,65.4a.638.638,0,0,0,.32-1.117c-.128-.108-2.883-2.5-1.686-5.637,1.605,1.63,5.974,5.465,11.241,5.169a.638.638,0,0,0,.582-.8,4.775,4.775,0,0,1,4.622-5.957,4.736,4.736,0,0,1,3.4,1.425.639.639,0,0,0,.444.19h.1a6.736,6.736,0,0,0,2.046-.328,9.334,9.334,0,0,1-1.075.958.638.638,0,0,0,.44,1.14c.1-.008.557-.048,1.119-.149C25.3,60.66,24.85,61.1,24.276,61.617Z" transform="translate(730 350.269)"/>
      </g>
    </g>
  </g>
</svg>
