<svg xmlns="http://www.w3.org/2000/svg" viewBox="3780.071 4167 12.369 22.877">
  <defs>
    <style>
      .cls-1 {
        fill: #fff;
      }
    </style>
  </defs>
  <g id="facebook-logo" transform="translate(3757.994 4167)">
    <path id="Path_32" data-name="Path 32" class="cls-1" d="M33.98,0,31.013,0c-3.333,0-5.487,2.21-5.487,5.63v2.6H22.543a.467.467,0,0,0-.466.467v3.761a.466.466,0,0,0,.466.466h2.983v9.49a.466.466,0,0,0,.466.466h3.892a.466.466,0,0,0,.466-.466V12.92h3.488a.466.466,0,0,0,.466-.466V8.693a.467.467,0,0,0-.467-.467H30.351v-2.2c0-1.058.252-1.595,1.63-1.595h2a.466.466,0,0,0,.466-.466V.471A.467.467,0,0,0,33.98,0Z"/>
  </g>
</svg>
