<svg xmlns="http://www.w3.org/2000/svg" viewBox="2838 57 55 55">
  <defs>
    <style>
      .cls-1 {
        fill: #fff;
      }
    </style>
  </defs>
  <path id="Subtraction_1" data-name="Subtraction 1" class="cls-1" d="M-1299.783,55h-45.434A4.788,4.788,0,0,1-1350,50.217V4.783A4.788,4.788,0,0,1-1345.217,0h45.434A4.788,4.788,0,0,1-1295,4.783V50.217A4.788,4.788,0,0,1-1299.783,55ZM-1320.7,34.524h0l-3.392,3.418h6.784a9.794,9.794,0,0,0,3.954-.816,10.358,10.358,0,0,0,3.266-2.194,11.115,11.115,0,0,0,2.193-3.265,9.6,9.6,0,0,0,.791-3.928,9.6,9.6,0,0,0-.791-3.928,10.739,10.739,0,0,0-2.219-3.265,10.514,10.514,0,0,0-3.24-2.194,9.855,9.855,0,0,0-3.954-.816h-6.784l3.392,3.418h3.392a6.952,6.952,0,0,1,2.628.51,7.157,7.157,0,0,1,2.168,1.479,6.961,6.961,0,0,1,1.479,2.168,6.6,6.6,0,0,1,.536,2.628,6.6,6.6,0,0,1-.536,2.627,7.313,7.313,0,0,1-1.454,2.168,6.679,6.679,0,0,1-2.168,1.479,7,7,0,0,1-2.653.51h-3.392Zm-17.344-6.784v10.2h3.393V31.157h6.81a6.564,6.564,0,0,0,4.8-1.989,6.514,6.514,0,0,0,1.99-4.821,6.676,6.676,0,0,0-1.99-4.821,6.564,6.564,0,0,0-4.8-1.99h-10.2l3.393,3.418h6.81a3.253,3.253,0,0,1,2.372,1,3.214,3.214,0,0,1,1.02,2.4,3.3,3.3,0,0,1-1.02,2.4,3.255,3.255,0,0,1-2.372,1h-10.2Z" transform="translate(4188 57)"/>
</svg>
