<svg xmlns="http://www.w3.org/2000/svg" viewBox="2838 57 257.29 55">
  <defs>
    <style>
      .cls-1, .cls-2 {
        fill: #fff;
      }

      .cls-2 {
        stroke: rgba(0,0,0,0);
      }
    </style>
  </defs>
  <g id="Group_32" data-name="Group 32" transform="translate(2700)">
    <path id="Subtraction_1" data-name="Subtraction 1" class="cls-1" d="M-1299.783,55h-45.434A4.788,4.788,0,0,1-1350,50.217V4.783A4.788,4.788,0,0,1-1345.217,0h45.434A4.788,4.788,0,0,1-1295,4.783V50.217A4.788,4.788,0,0,1-1299.783,55ZM-1320.7,34.524h0l-3.392,3.418h6.784a9.794,9.794,0,0,0,3.954-.816,10.358,10.358,0,0,0,3.266-2.194,11.115,11.115,0,0,0,2.193-3.265,9.6,9.6,0,0,0,.791-3.928,9.6,9.6,0,0,0-.791-3.928,10.739,10.739,0,0,0-2.219-3.265,10.514,10.514,0,0,0-3.24-2.194,9.855,9.855,0,0,0-3.954-.816h-6.784l3.392,3.418h3.392a6.952,6.952,0,0,1,2.628.51,7.157,7.157,0,0,1,2.168,1.479,6.961,6.961,0,0,1,1.479,2.168,6.6,6.6,0,0,1,.536,2.628,6.6,6.6,0,0,1-.536,2.627,7.313,7.313,0,0,1-1.454,2.168,6.679,6.679,0,0,1-2.168,1.479,7,7,0,0,1-2.653.51h-3.392Zm-17.344-6.784v10.2h3.393V31.157h6.81a6.564,6.564,0,0,0,4.8-1.989,6.514,6.514,0,0,0,1.99-4.821,6.676,6.676,0,0,0-1.99-4.821,6.564,6.564,0,0,0-4.8-1.99h-10.2l3.393,3.418h6.81a3.253,3.253,0,0,1,2.372,1,3.214,3.214,0,0,1,1.02,2.4,3.3,3.3,0,0,1-1.02,2.4,3.255,3.255,0,0,1-2.372,1h-10.2Z" transform="translate(1488 57)"/>
    <path id="Path_34" data-name="Path 34" class="cls-2" d="M2.687-.095a.857.857,0,0,1-.23-.635V-18.2a.787.787,0,0,1,.257-.594.887.887,0,0,1,.635-.243H9.666a6.763,6.763,0,0,1,4.6,1.431,5.1,5.1,0,0,1,1.633,4.05,5.152,5.152,0,0,1-1.647,4.09,6.731,6.731,0,0,1-4.59,1.444H4.131v7.29a.857.857,0,0,1-.23.635.821.821,0,0,1-.607.229A.821.821,0,0,1,2.687-.095ZM9.558-9.45q4.671,0,4.671-4.1,0-4.05-4.671-4.05H4.131V-9.45Zm16.389-3.78a.632.632,0,0,1,.216.54q0,.675-.81.756l-.81.081a3.916,3.916,0,0,0-2.848,1.377,4.376,4.376,0,0,0-.931,2.781V-.7a.841.841,0,0,1-.216.621.8.8,0,0,1-.594.216.85.85,0,0,1-.608-.216A.812.812,0,0,1,19.116-.7V-12.528a.812.812,0,0,1,.229-.621.85.85,0,0,1,.608-.216.767.767,0,0,1,.567.216.8.8,0,0,1,.216.594V-10.8a4.519,4.519,0,0,1,4.1-2.538l.378-.027A1.143,1.143,0,0,1,25.947-13.23ZM30.038-.648a5.619,5.619,0,0,1-2.119-2.376,8.053,8.053,0,0,1-.756-3.591,8.053,8.053,0,0,1,.756-3.591,5.619,5.619,0,0,1,2.119-2.376,5.941,5.941,0,0,1,3.172-.837,5.96,5.96,0,0,1,3.159.837,5.5,5.5,0,0,1,2.12,2.376,8.176,8.176,0,0,1,.743,3.591,8.176,8.176,0,0,1-.743,3.591,5.5,5.5,0,0,1-2.12,2.376A5.96,5.96,0,0,1,33.21.189,5.941,5.941,0,0,1,30.038-.648Zm6.358-2A6.1,6.1,0,0,0,37.53-6.615a6.126,6.126,0,0,0-1.147-3.955,3.857,3.857,0,0,0-3.173-1.418,3.848,3.848,0,0,0-3.186,1.418A6.178,6.178,0,0,0,28.89-6.615,6.2,6.2,0,0,0,30-2.646a3.849,3.849,0,0,0,3.186,1.377A3.928,3.928,0,0,0,36.4-2.646Zm8.37,2a5.59,5.59,0,0,1-2.133-2.376,7.923,7.923,0,0,1-.756-3.537,7.955,7.955,0,0,1,.77-3.578,5.812,5.812,0,0,1,2.16-2.417,5.936,5.936,0,0,1,3.2-.864,7.43,7.43,0,0,1,2,.27,5.457,5.457,0,0,1,1.728.81,3.038,3.038,0,0,1,.688.634,1.026,1.026,0,0,1,.2.608.72.72,0,0,1-.162.486.512.512,0,0,1-.405.189,1.8,1.8,0,0,1-.864-.459,7.037,7.037,0,0,0-1.4-.81,4.36,4.36,0,0,0-1.7-.3,4.031,4.031,0,0,0-3.294,1.444A6.092,6.092,0,0,0,43.6-6.561a5.871,5.871,0,0,0,1.175,3.9,4.06,4.06,0,0,0,3.28,1.39,4.338,4.338,0,0,0,1.715-.3,10.946,10.946,0,0,0,1.5-.81q.243-.162.472-.3a.794.794,0,0,1,.365-.135.54.54,0,0,1,.432.189.681.681,0,0,1,.162.459.9.9,0,0,1-.189.567,3.564,3.564,0,0,1-.729.621,5.671,5.671,0,0,1-1.769.85,7.188,7.188,0,0,1-2.066.311A6.011,6.011,0,0,1,44.766-.648ZM66-2.605a.7.7,0,0,1,.175.472q0,.594-.918,1.161a7.88,7.88,0,0,1-4.1,1.161A6.225,6.225,0,0,1,56.43-1.62,6.9,6.9,0,0,1,54.7-6.588a7.955,7.955,0,0,1,.769-3.578,5.721,5.721,0,0,1,2.16-2.4,6.008,6.008,0,0,1,3.2-.851,5.125,5.125,0,0,1,4.009,1.634,6.472,6.472,0,0,1,1.472,4.5,1.015,1.015,0,0,1-.216.716.928.928,0,0,1-.7.23H56.4a5.612,5.612,0,0,0,1.3,3.78,4.471,4.471,0,0,0,3.429,1.3,5.3,5.3,0,0,0,1.944-.311A12.968,12.968,0,0,0,64.746-2.4a1.929,1.929,0,0,1,.837-.4A.537.537,0,0,1,66-2.605Zm-8.194-8.275a5.45,5.45,0,0,0-1.35,3.321H64.8a5.115,5.115,0,0,0-1.08-3.334,3.632,3.632,0,0,0-2.889-1.175A3.985,3.985,0,0,0,57.807-10.881ZM71.753-.121a7.13,7.13,0,0,1-1.931-.85,3.348,3.348,0,0,1-.715-.608.912.912,0,0,1-.2-.58.65.65,0,0,1,.175-.459.552.552,0,0,1,.419-.189,1.929,1.929,0,0,1,.837.4,8.827,8.827,0,0,0,1.606.837,5.684,5.684,0,0,0,2.066.324,4.528,4.528,0,0,0,2.484-.581,1.866,1.866,0,0,0,.891-1.66,1.691,1.691,0,0,0-.324-1.067,2.572,2.572,0,0,0-1.08-.729,13.128,13.128,0,0,0-2.16-.607A8.271,8.271,0,0,1,70.4-7.276,2.827,2.827,0,0,1,69.39-9.558a3.391,3.391,0,0,1,1.35-2.795,5.494,5.494,0,0,1,3.51-1.067,7.384,7.384,0,0,1,2.012.27,5.154,5.154,0,0,1,1.66.783q.945.648.945,1.269a.7.7,0,0,1-.176.472.537.537,0,0,1-.418.2,1.718,1.718,0,0,1-.837-.432,8.18,8.18,0,0,0-1.445-.823,4.606,4.606,0,0,0-1.823-.311,3.62,3.62,0,0,0-2.241.634,2.039,2.039,0,0,0-.837,1.715,1.748,1.748,0,0,0,.284,1.026,2.315,2.315,0,0,0,.972.716,11.1,11.1,0,0,0,1.984.607,14.109,14.109,0,0,1,2.862.918,3.407,3.407,0,0,1,1.431,1.161,3.153,3.153,0,0,1,.432,1.728A3.141,3.141,0,0,1,77.665-.824,6.123,6.123,0,0,1,73.98.189,8.116,8.116,0,0,1,71.753-.121Zm12.906,0a7.13,7.13,0,0,1-1.931-.85,3.348,3.348,0,0,1-.715-.608.912.912,0,0,1-.2-.58.65.65,0,0,1,.175-.459.552.552,0,0,1,.419-.189,1.929,1.929,0,0,1,.837.4,8.827,8.827,0,0,0,1.607.837,5.684,5.684,0,0,0,2.065.324A4.528,4.528,0,0,0,89.4-1.823a1.866,1.866,0,0,0,.891-1.66,1.691,1.691,0,0,0-.324-1.067,2.572,2.572,0,0,0-1.08-.729,13.128,13.128,0,0,0-2.16-.607,8.271,8.271,0,0,1-3.415-1.391A2.827,2.827,0,0,1,82.3-9.558a3.391,3.391,0,0,1,1.35-2.795,5.494,5.494,0,0,1,3.51-1.067,7.384,7.384,0,0,1,2.011.27,5.154,5.154,0,0,1,1.661.783q.945.648.945,1.269a.7.7,0,0,1-.175.472.537.537,0,0,1-.419.2,1.718,1.718,0,0,1-.837-.432,8.18,8.18,0,0,0-1.445-.823,4.606,4.606,0,0,0-1.823-.311,3.62,3.62,0,0,0-2.241.634A2.039,2.039,0,0,0,84-9.639a1.748,1.748,0,0,0,.284,1.026,2.315,2.315,0,0,0,.972.716,11.1,11.1,0,0,0,1.984.607,14.109,14.109,0,0,1,2.862.918A3.407,3.407,0,0,1,91.53-5.211a3.153,3.153,0,0,1,.432,1.728,3.141,3.141,0,0,1-1.39,2.659A6.123,6.123,0,0,1,86.886.189,8.116,8.116,0,0,1,84.659-.121ZM97.591-.648a5.619,5.619,0,0,1-2.119-2.376,8.052,8.052,0,0,1-.756-3.591,8.052,8.052,0,0,1,.756-3.591,5.619,5.619,0,0,1,2.119-2.376,5.941,5.941,0,0,1,3.173-.837,5.96,5.96,0,0,1,3.159.837,5.5,5.5,0,0,1,2.119,2.376,8.176,8.176,0,0,1,.743,3.591,8.176,8.176,0,0,1-.743,3.591,5.5,5.5,0,0,1-2.119,2.376,5.96,5.96,0,0,1-3.159.837A5.941,5.941,0,0,1,97.591-.648Zm6.358-2a6.1,6.1,0,0,0,1.134-3.969,6.126,6.126,0,0,0-1.147-3.955,3.857,3.857,0,0,0-3.173-1.418,3.848,3.848,0,0,0-3.186,1.418,6.178,6.178,0,0,0-1.134,3.955,6.2,6.2,0,0,0,1.107,3.969,3.849,3.849,0,0,0,3.186,1.377A3.928,3.928,0,0,0,103.95-2.646Zm13.676,2.4a.787.787,0,0,1-.257-.594V-18.2a.787.787,0,0,1,.257-.594.887.887,0,0,1,.634-.243H123.5a9.469,9.469,0,0,1,6.98,2.457q2.47,2.457,2.47,7.047t-2.47,7.06A9.439,9.439,0,0,1,123.5,0H118.26A.887.887,0,0,1,117.626-.243Zm5.791-1.215q7.776,0,7.776-8.073,0-8.046-7.776-8.046h-4.374V-1.458ZM137.038-.081a.812.812,0,0,1-.229-.621V-12.528a.812.812,0,0,1,.229-.621.85.85,0,0,1,.607-.216.8.8,0,0,1,.594.216.841.841,0,0,1,.216.621V-.7a.841.841,0,0,1-.216.621.8.8,0,0,1-.594.216A.85.85,0,0,1,137.038-.081Zm-.27-16.659a1.109,1.109,0,0,1-.338-.837,1.142,1.142,0,0,1,.338-.864,1.214,1.214,0,0,1,.877-.324,1.214,1.214,0,0,1,.878.324,1.142,1.142,0,0,1,.338.864,1.109,1.109,0,0,1-.338.837,1.214,1.214,0,0,1-.878.324A1.214,1.214,0,0,1,136.769-16.74Zm17.064,3.6a.821.821,0,0,1,.23.608V-.756a6.013,6.013,0,0,1-1.418,4.333,5.569,5.569,0,0,1-4.2,1.472,10.9,10.9,0,0,1-2.605-.284,7.868,7.868,0,0,1-2.146-.877q-.972-.594-.972-1.161a.686.686,0,0,1,.176-.486.581.581,0,0,1,.445-.189,1.058,1.058,0,0,1,.445.148q.284.148.392.2a11.81,11.81,0,0,0,1.89.85,7.4,7.4,0,0,0,2.4.338,3.906,3.906,0,0,0,2.97-1.053,4.393,4.393,0,0,0,1-3.132V-3.159A4.3,4.3,0,0,1,150.7-1.12a5.376,5.376,0,0,1-2.848.715,5.8,5.8,0,0,1-3.064-.81,5.477,5.477,0,0,1-2.079-2.295,7.507,7.507,0,0,1-.743-3.4,7.507,7.507,0,0,1,.743-3.4,5.477,5.477,0,0,1,2.079-2.3,5.8,5.8,0,0,1,3.064-.81,5.411,5.411,0,0,1,2.808.689,4.324,4.324,0,0,1,1.755,2.011v-1.809a.85.85,0,0,1,.216-.608.776.776,0,0,1,.594-.229A.821.821,0,0,1,153.833-13.135Zm-2.565,9.922a5.53,5.53,0,0,0,1.148-3.7,5.541,5.541,0,0,0-1.161-3.713,3.963,3.963,0,0,0-3.186-1.363,4.012,4.012,0,0,0-3.213,1.35,5.53,5.53,0,0,0-1.161,3.726A5.477,5.477,0,0,0,144.855-3.2a4.032,4.032,0,0,0,3.213,1.337A3.972,3.972,0,0,0,151.268-3.213Zm7.344,3.132a.812.812,0,0,1-.229-.621V-12.528a.812.812,0,0,1,.229-.621.85.85,0,0,1,.607-.216.8.8,0,0,1,.594.216.841.841,0,0,1,.216.621V-.7a.841.841,0,0,1-.216.621.8.8,0,0,1-.594.216A.85.85,0,0,1,158.611-.081Zm-.27-16.659a1.109,1.109,0,0,1-.338-.837,1.142,1.142,0,0,1,.338-.864,1.214,1.214,0,0,1,.877-.324,1.214,1.214,0,0,1,.878.324,1.142,1.142,0,0,1,.338.864,1.109,1.109,0,0,1-.338.837,1.214,1.214,0,0,1-.878.324A1.214,1.214,0,0,1,158.342-16.74ZM170.829-.54a.615.615,0,0,1-.243.513,1.184,1.184,0,0,1-.783.162l-.756-.054a4.23,4.23,0,0,1-3.037-1.255,5.057,5.057,0,0,1-.986-3.416v-7.182h-2.052a.724.724,0,0,1-.513-.176.614.614,0,0,1-.189-.472.658.658,0,0,1,.189-.486.693.693,0,0,1,.513-.189h2.052v-3.348a.841.841,0,0,1,.216-.621.8.8,0,0,1,.594-.216.85.85,0,0,1,.607.216.812.812,0,0,1,.23.621V-13.1h3.267a.731.731,0,0,1,.54.189.658.658,0,0,1,.189.486.614.614,0,0,1-.189.472.765.765,0,0,1-.54.176h-3.267v7.263a3.531,3.531,0,0,0,.648,2.389,2.931,2.931,0,0,0,2.025.824l.729.054Q170.829-1.161,170.829-.54Zm11.11-11.637a5.285,5.285,0,0,1,1.174,3.753V-.729a.85.85,0,0,1-.216.608.776.776,0,0,1-.594.229.776.776,0,0,1-.594-.229.85.85,0,0,1-.216-.608v-1.62a4.245,4.245,0,0,1-1.647,1.876,4.659,4.659,0,0,1-2.484.662,5.23,5.23,0,0,1-2.322-.513,4.094,4.094,0,0,1-1.661-1.431,3.592,3.592,0,0,1-.607-2.025,3.2,3.2,0,0,1,.756-2.268,4.61,4.61,0,0,1,2.511-1.161,26.3,26.3,0,0,1,4.887-.351h.567v-1a3.867,3.867,0,0,0-.729-2.606,2.914,2.914,0,0,0-2.295-.823,7.455,7.455,0,0,0-3.807,1.053l-.419.284a1.093,1.093,0,0,1-.58.229.564.564,0,0,1-.445-.2.736.736,0,0,1-.176-.5q0-.594.945-1.161a8.436,8.436,0,0,1,2.106-.837,9.234,9.234,0,0,1,2.295-.3A4.667,4.667,0,0,1,181.939-12.177ZM180.374-2.43a4.231,4.231,0,0,0,1.12-3.024v-.891h-.513a27.439,27.439,0,0,0-3.969.216,3.725,3.725,0,0,0-1.944.742,1.98,1.98,0,0,0-.567,1.525,2.368,2.368,0,0,0,.864,1.877,3.158,3.158,0,0,0,2.133.743A3.777,3.777,0,0,0,180.374-2.43Zm7.263,2.349a.812.812,0,0,1-.229-.621V-18.333a.812.812,0,0,1,.229-.621.85.85,0,0,1,.607-.216.813.813,0,0,1,.581.216.812.812,0,0,1,.23.621V-.7a.812.812,0,0,1-.23.621.813.813,0,0,1-.581.216A.85.85,0,0,1,187.636-.081Z" transform="translate(205.736 97)"/>
  </g>
</svg>
